<svg width="16" height="16" viewBox="0 0 16 16" fill="none" xmlns="http://www.w3.org/2000/svg">
<path d="M11.3535 8.35354L6.35354 13.3535C6.30708 13.4 6.25193 13.4368 6.19124 13.462C6.13054 13.4871 6.06549 13.5001 5.99979 13.5001C5.93409 13.5001 5.86904 13.4871 5.80834 13.462C5.74764 13.4368 5.69249 13.4 5.64604 13.3535C5.59958 13.3071 5.56273 13.2519 5.53759 13.1912C5.51245 13.1305 5.49951 13.0655 5.49951 12.9998C5.49951 12.9341 5.51245 12.869 5.53759 12.8083C5.56273 12.7476 5.59958 12.6925 5.64604 12.646L10.2929 7.99979L5.64604 3.35354C5.55222 3.25972 5.49951 3.13247 5.49951 2.99979C5.49951 2.86711 5.55222 2.73986 5.64604 2.64604C5.73986 2.55222 5.86711 2.49951 5.99979 2.49951C6.13247 2.49951 6.25972 2.55222 6.35354 2.64604L11.3535 7.64604C11.4 7.69248 11.4369 7.74762 11.4621 7.80832C11.4872 7.86902 11.5002 7.93408 11.5002 7.99979C11.5002 8.0655 11.4872 8.13056 11.4621 8.19126C11.4369 8.25196 11.4 8.3071 11.3535 8.35354Z" fill="#292929"/>
</svg>
