<svg width="20" height="21" viewBox="0 0 20 21" fill="none" xmlns="http://www.w3.org/2000/svg">
<path d="M15.3125 9.25C15.5597 9.25 15.8014 9.32331 16.007 9.46066C16.2125 9.59802 16.3727 9.79324 16.4673 10.0216C16.562 10.2501 16.5867 10.5014 16.5385 10.7439C16.4902 10.9863 16.3712 11.2091 16.1964 11.3839C16.0216 11.5587 15.7988 11.6778 15.5564 11.726C15.3139 11.7742 15.0626 11.7495 14.8341 11.6549C14.6057 11.5602 14.4105 11.4 14.2732 11.1945C14.1358 10.9889 14.0625 10.7472 14.0625 10.5C14.0625 10.1685 14.1942 9.85054 14.4286 9.61612C14.663 9.3817 14.981 9.25 15.3125 9.25ZM11.25 10.5C11.25 10.2528 11.1767 10.0111 11.0393 9.80554C10.902 9.59998 10.7068 9.43976 10.4784 9.34515C10.2499 9.25054 9.99861 9.22579 9.75614 9.27402C9.51366 9.32225 9.29093 9.4413 9.11612 9.61612C8.9413 9.79093 8.82225 10.0137 8.77402 10.2561C8.72579 10.4986 8.75054 10.7499 8.84515 10.9784C8.93976 11.2068 9.09998 11.402 9.30554 11.5393C9.5111 11.6767 9.75277 11.75 10 11.75C10.3315 11.75 10.6495 11.6183 10.8839 11.3839C11.1183 11.1495 11.25 10.8315 11.25 10.5ZM5.9375 10.5C5.9375 10.2528 5.86419 10.0111 5.72684 9.80554C5.58949 9.59998 5.39426 9.43976 5.16585 9.34515C4.93745 9.25054 4.68611 9.22579 4.44364 9.27402C4.20116 9.32225 3.97843 9.4413 3.80362 9.61612C3.6288 9.79093 3.50975 10.0137 3.46152 10.2561C3.41329 10.4986 3.43804 10.7499 3.53265 10.9784C3.62726 11.2068 3.78748 11.402 3.99304 11.5393C4.1986 11.6767 4.44027 11.75 4.6875 11.75C5.01902 11.75 5.33696 11.6183 5.57138 11.3839C5.8058 11.1495 5.9375 10.8315 5.9375 10.5Z" fill="#525252"/>
</svg>
