<svg width="17" height="18" viewBox="0 0 17 18" fill="none" xmlns="http://www.w3.org/2000/svg">
<g clip-path="url(#clip0_1_2806)">
<path d="M13.4694 6.18971C13.7558 5.9034 13.9167 5.51505 13.9167 5.11009C13.9168 4.70514 13.756 4.31674 13.4696 4.03036C13.1833 3.74398 12.795 3.58306 12.39 3.58301C11.9851 3.58296 11.5967 3.74378 11.3103 4.03009L4.08121 11.2608C3.95545 11.3862 3.86244 11.5406 3.81038 11.7104L3.09484 14.0677C3.08084 14.1146 3.07978 14.1643 3.09178 14.2117C3.10377 14.2591 3.12838 14.3024 3.16298 14.3369C3.19757 14.3715 3.24088 14.396 3.2883 14.4079C3.33571 14.4198 3.38547 14.4187 3.43229 14.4046L5.79017 13.6896C5.9598 13.638 6.11418 13.5456 6.23975 13.4204L13.4694 6.18971Z" stroke="#7C7C7C" stroke-width="1.5" stroke-linecap="round" stroke-linejoin="round"/>
<path d="M10.125 5.20801L12.2917 7.37467" stroke="#7C7C7C" stroke-width="1.5" stroke-linecap="round" stroke-linejoin="round"/>
</g>
<defs>
<clipPath id="clip0_1_2806">
<rect width="13" height="13" fill="white" transform="translate(2 2.5)"/>
</clipPath>
</defs>
</svg>
