<svg width="15" height="14" viewBox="0 0 15 14" fill="none" xmlns="http://www.w3.org/2000/svg">
<g clip-path="url(#clip0_1_1677)">
<path d="M13.2746 3.97373C13.5831 3.66539 13.7563 3.24717 13.7564 2.81106C13.7565 2.37495 13.5833 1.95668 13.2749 1.64827C12.9666 1.33985 12.5484 1.16656 12.1123 1.1665C11.6762 1.16645 11.2579 1.33964 10.9495 1.64798L3.16431 9.43489C3.02887 9.56993 2.92871 9.7362 2.87264 9.91906L2.10206 12.4577C2.08698 12.5082 2.08584 12.5618 2.09876 12.6128C2.11168 12.6638 2.13818 12.7104 2.17544 12.7476C2.2127 12.7848 2.25933 12.8113 2.3104 12.8241C2.36146 12.8369 2.41505 12.8357 2.46547 12.8206L5.00472 12.0506C5.1874 11.995 5.35366 11.8954 5.48889 11.7606L13.2746 3.97373Z" stroke="#0F3549" stroke-width="1.5" stroke-linecap="round" stroke-linejoin="round"/>
<path d="M9.67285 2.9165L12.0062 5.24984" stroke="#0F3549" stroke-width="1.5" stroke-linecap="round" stroke-linejoin="round"/>
</g>
<defs>
<clipPath id="clip0_1_1677">
<rect width="14" height="14" fill="white" transform="translate(0.922852)"/>
</clipPath>
</defs>
</svg>
