<svg width="347" height="70" viewBox="0 0 347 70" fill="none" xmlns="http://www.w3.org/2000/svg">
<g clip-path="url(#clip0_1_1595)">
<mask id="mask0_1_1595" style="mask-type:luminance" maskUnits="userSpaceOnUse" x="-888" y="-1966" width="1509" height="2117">
<path d="M-887.683 -1965.22V150.674H620.319V-1965.22H-887.683Z" fill="white"/>
</mask>
<g mask="url(#mask0_1_1595)">
<mask id="mask1_1_1595" style="mask-type:luminance" maskUnits="userSpaceOnUse" x="-888" y="-1966" width="1509" height="2117">
<path d="M-887.683 150.684H620.323V-1965.23H-887.683V150.684Z" fill="white"/>
</mask>
<g mask="url(#mask1_1_1595)">
<path d="M117.562 13.272C114.607 8.654 108.675 6.13453 102.93 6.13453C92.2465 6.13453 82.0826 14.1233 82.0826 28.0383C82.0826 41.9517 92.2465 49.9405 102.93 49.9405C108.675 49.9405 114.419 47.4272 117.562 42.5808V49.0438H126.156V7.14545H117.562V13.272ZM104.276 42.4008C97.2745 42.4008 90.8115 37.1944 90.8115 28.0383C90.8115 18.8821 97.2745 13.6757 104.276 13.6757C111.099 13.6757 117.562 19.1513 117.562 28.0383C117.562 36.9253 111.099 42.4008 104.276 42.4008ZM162.393 28.6157C162.393 37.2711 159.574 42.429 152.834 42.429C146.343 42.429 142.932 38.268 142.932 30.1978V7.14545H133.862V30.7768C133.862 45.1738 141.767 49.9154 150.838 49.9154C156.998 49.9154 161.232 46.5587 162.723 43.6934V50.1705C162.723 57.308 160.717 62.7225 152.975 62.7225C147.213 62.7225 144.263 60.8477 143.107 55.6711H134.051C135.218 64.7459 141.771 69.8208 152.161 69.8208C166.07 69.8208 171.403 61.1748 171.403 49.5821V7.14545H162.393V28.6157ZM201.593 49.0422L217.179 7.14545H208.136L196.51 40.5339L184.885 7.14545H175.309L190.978 49.0422H201.593ZM275.123 27.3638C275.123 19.3688 279.058 13.718 286.579 13.718C293.206 13.718 296.519 17.7601 296.519 25.8474V49.0422H305.366V24.921C305.366 11.4286 298.259 6.13453 289.106 6.13453C283.11 6.13453 277.074 9.40046 274.673 14.2015V7.14545H266.192V49.0422H275.123V27.3638ZM238.967 49.9405C248.098 49.9405 255.641 44.6949 258.092 36.1256H249.274C247.79 40.7389 244.009 42.5276 238.967 42.5276C231.822 42.5276 227.154 37.1412 226.667 30.3668H259.187C259.333 28.9037 259.356 27.8505 259.356 26.1839C259.356 14.9355 251.061 6.13453 239.053 6.13453C225.985 6.13453 217.907 15.4581 217.907 28.2073C217.907 39.9502 225.603 49.9405 238.967 49.9405ZM238.967 13.128C246.059 13.128 250.405 17.8399 250.537 24.0775H226.836C227.415 17.5175 231.938 13.128 238.967 13.128ZM346.168 36.6311C346.168 21.8789 321.176 25.9992 321.176 17.5958C321.176 14.6851 323.543 13.0732 328.252 13.0732C333.236 13.0732 336.164 15.4237 336.256 19.0245H344.625C344.273 10.5898 337.571 6.13453 328.421 6.13453C318.935 6.13453 312.638 10.9872 312.638 18.4925C312.638 33.0162 337.266 28.622 337.266 37.4433C337.266 40.7405 334.668 43.0064 329.517 43.0064C324.415 43.0064 320.291 40.2194 319.659 35.7876H310.868C311.508 43.7842 318.454 49.9405 329.599 49.9405C341.427 49.9405 346.168 43.0831 346.168 36.6311ZM44.411 49.0438H65.8672V0.18013H52.1948C52.1948 17.2077 49.4546 33.7047 44.411 49.0438ZM37.3221 0.18013L0.282715 49.3505C27.2051 49.3505 49.3357 27.1025 49.3357 0.18013H37.3221ZM206.507 65.6864H207.79V58.7664H206.507V65.6864ZM201.854 64.6708C200.158 64.6708 199.097 63.6379 199.097 62.2061C199.097 60.8258 200.147 59.757 201.834 59.757C202.895 59.757 203.701 60.1138 204.335 60.6036L205.022 59.5911C204.142 58.9433 203.166 58.5552 201.8 58.5552C199.51 58.5552 197.74 60.0496 197.74 62.2061C197.74 64.4032 199.484 65.871 201.8 65.871C203.166 65.871 204.199 65.5017 205.075 64.8585L204.39 63.8429C203.661 64.3947 202.768 64.6862 201.854 64.6708ZM210.961 62.735H214.863V61.5911H210.961V59.9135H215.979V58.7664H209.679V65.6864H216.201V64.5456H210.961V62.735ZM192.473 58.5552C190.268 58.5552 188.44 60.0496 188.44 62.217C188.44 64.4141 190.268 65.882 192.473 65.882C194.687 65.882 196.485 64.4141 196.485 62.217C196.485 60.0496 194.687 58.5552 192.473 58.5552ZM192.473 64.7067C190.822 64.7067 189.767 63.6489 189.767 62.217C189.767 60.8258 190.869 59.7367 192.473 59.7367C194.115 59.7367 195.157 60.8258 195.157 62.217C195.157 63.6379 194.115 64.7067 192.473 64.7067ZM181.78 60.5191C181.78 60.0402 182.398 59.7726 183.636 59.7726C184.486 59.7726 185.434 60.023 186.318 60.4017L186.825 59.358C185.829 58.85 184.725 58.5902 183.606 58.6005C181.575 58.6005 180.45 59.4143 180.45 60.5927C180.45 63.3249 185.969 62.2061 185.969 63.7037C185.969 64.2827 185.248 64.6708 183.904 64.6708C182.83 64.6708 181.843 64.4141 180.783 63.8226L180.286 64.9133C181.495 65.5659 182.545 65.8429 183.894 65.8429C186.162 65.8429 187.298 64.9133 187.298 63.7037C187.298 60.7883 181.78 61.8837 181.78 60.5191ZM241.903 64.2467C241.281 64.5229 240.608 64.6643 239.928 64.6614C238.23 64.6614 237.169 63.6379 237.169 62.2061C237.169 60.8258 238.221 59.7367 239.909 59.7726C240.974 59.7726 241.776 60.1028 242.41 60.5927L243.094 59.5802C242.216 58.9339 241.21 58.5552 239.872 58.5552C237.584 58.5552 235.814 60.0496 235.814 62.2061C235.814 64.4032 237.559 65.871 239.872 65.871C241.064 65.871 242.271 65.5095 243.15 64.9196V62.2373H241.903V64.2467ZM310.084 64.2467C309.461 64.5229 308.787 64.6642 308.106 64.6614C306.411 64.6614 305.348 63.6379 305.348 62.2061C305.348 60.8258 306.402 59.7367 308.089 59.7726C309.149 59.7726 309.952 60.1028 310.589 60.5927L311.27 59.5802C310.394 58.9339 309.386 58.5552 308.051 58.5552C305.765 58.5552 303.992 60.0496 303.992 62.2061C303.992 64.4032 305.735 65.871 308.051 65.871C309.24 65.871 310.45 65.5095 311.326 64.9196V62.2373H310.084V64.2467ZM294.325 62.735H298.227V61.5911H294.325V59.9135H299.339V58.7664H293.042V65.6864H299.563V64.5456H294.325V62.735ZM319.963 60.9714C319.963 59.6709 319.051 58.7664 317.57 58.7664H313.126V65.6864H314.409V63.1419H316.475L318.429 65.6864H320.033L317.977 63.1027C319.066 62.9462 319.963 62.2061 319.963 60.9714ZM314.409 61.9838V59.9135H317.57C318.293 59.9135 318.687 60.3188 318.687 60.9714C318.687 61.5707 318.238 61.9838 317.434 61.9838H314.409ZM343.82 58.7664H339.532V65.6864H340.812V63.3609H343.82C345.333 63.3609 346.283 62.5409 346.283 61.1216C346.283 59.757 345.333 58.7664 343.82 58.7664ZM343.893 62.217H340.812V59.9135H343.82C344.558 59.9135 344.971 60.4565 344.971 61.1388C344.971 61.7569 344.558 62.217 343.893 62.217ZM287.516 58.7664H286.233V65.6864H292.138V64.5456H287.516V58.7664ZM216.835 59.9041H219.658V65.6864H220.941V59.9041H223.755V58.7664H216.835V59.9041ZM325.144 58.5552C322.939 58.5552 321.115 60.0496 321.115 62.217C321.115 64.4141 322.939 65.882 325.144 65.882C327.36 65.882 329.16 64.4141 329.16 62.217C329.16 60.0496 327.36 58.5552 325.144 58.5552ZM325.144 64.7067C323.496 64.7067 322.442 63.6489 322.442 62.217C322.442 60.8258 323.542 59.7367 325.144 59.7367C326.792 59.7367 327.83 60.8258 327.83 62.217C327.83 63.6379 326.792 64.7067 325.144 64.7067ZM336.393 62.735C336.393 63.8883 335.681 64.7021 334.188 64.7021C332.684 64.7021 331.983 63.8789 331.983 62.735V58.7664H330.701V62.8727C330.701 64.6066 332.011 65.8898 334.188 65.8898C336.364 65.8898 337.673 64.6363 337.673 62.8727V58.7664H336.393V62.735ZM258.676 60.5754C258.676 61.6004 258.686 62.6614 258.757 63.9697L258.732 63.9791L254.222 58.7664H252.909V65.6864H254.166V63.8789C254.166 63.2983 254.166 61.505 254.117 60.4815L254.136 60.4737L258.63 65.6864H259.929V58.7664H258.676V60.5754ZM246.232 62.735H250.133V61.5911H246.232V59.9135H251.249V58.7664H244.948V65.6864H251.469V64.5456H246.232V62.735ZM280.551 58.7664L277.182 65.6864H278.567L279.359 64.0041H283.097L283.889 65.6864H285.274L281.897 58.7664H280.551ZM279.894 62.8821L281.233 60.0778L282.562 62.8821H279.894ZM226.146 62.735H230.047V61.5911H226.146V59.9135H231.165V58.7664H224.863V65.6864H231.387V64.5456H226.146V62.735ZM276.612 60.9714C276.612 59.6709 275.697 58.7664 274.223 58.7664H269.772V65.6864H271.055V63.1419H273.121L275.079 65.6864H276.683L274.626 63.1027C275.716 62.9462 276.612 62.2061 276.612 60.9714ZM271.055 61.9838V59.9135H274.223C274.939 59.9135 275.339 60.3188 275.339 60.9714C275.339 61.5707 274.885 61.9838 274.082 61.9838H271.055ZM263.114 62.735H267.015V61.5911H263.114V59.9135H268.131V58.7664H261.833V65.6864H268.353V64.5456H263.114V62.735Z" fill="#0F3549"/>
</g>
</g>
</g>
<defs>
<clipPath id="clip0_1_1595">
<rect width="346" height="70" fill="white" transform="translate(0.577148)"/>
</clipPath>
</defs>
</svg>
