<svg width="21" height="22" viewBox="0 0 21 22" fill="none" xmlns="http://www.w3.org/2000/svg">
<path d="M18.347 16.9698C18.3385 17.2718 18.2694 17.569 18.1438 17.8438C18.0182 18.1186 17.8387 18.3654 17.6159 18.5694C17.3931 18.7735 17.1315 18.9306 16.8468 19.0316C16.562 19.1326 16.2599 19.1754 15.9583 19.1573C14.0744 19.1678 12.1905 19.1573 10.3066 19.1573C10.1906 19.1573 10.0793 19.1112 9.99728 19.0292C9.91523 18.9471 9.86914 18.8358 9.86914 18.7198C9.86914 18.6038 9.91523 18.4925 9.99728 18.4104C10.0793 18.3284 10.1906 18.2823 10.3066 18.2823C12.2316 18.2823 14.1566 18.3103 16.0816 18.2823C17.0503 18.2683 17.472 17.5403 17.472 16.6741V5.76893C17.4788 5.49353 17.4013 5.22264 17.2499 4.99247C17.0986 4.76231 16.8805 4.58384 16.625 4.48093C16.3229 4.39848 16.0086 4.37034 15.6966 4.3978H10.3066C10.1906 4.3978 10.0793 4.35171 9.99728 4.26966C9.91523 4.18761 9.86914 4.07633 9.86914 3.9603C9.86914 3.84427 9.91523 3.73299 9.99728 3.65094C10.0793 3.5689 10.1906 3.5228 10.3066 3.5228C12.2526 3.5228 14.2135 3.44843 16.1578 3.5228C16.4555 3.53033 16.7488 3.597 17.0205 3.71893C17.2922 3.84085 17.537 4.01561 17.7406 4.23301C17.9441 4.45042 18.1024 4.70614 18.2062 4.9853C18.3101 5.26445 18.3573 5.56146 18.3453 5.85905L18.347 16.9698Z" fill="white"/>
<path d="M2.77905 11.0328C2.70513 11.1045 2.66185 11.202 2.6583 11.3049C2.6583 11.318 2.6583 11.3294 2.65305 11.3425C2.6478 11.3557 2.65305 11.3662 2.6583 11.3784C2.6618 11.4816 2.70507 11.5794 2.77905 11.6514L5.98943 14.8618C6.07194 14.9415 6.18246 14.9856 6.29717 14.9846C6.41188 14.9836 6.52161 14.9376 6.60272 14.8565C6.68384 14.7753 6.72985 14.6656 6.73085 14.5509C6.73185 14.4362 6.68775 14.3257 6.60805 14.2432L4.14493 11.7792H13.5442C13.6602 11.7792 13.7715 11.7331 13.8535 11.651C13.9356 11.569 13.9817 11.4577 13.9817 11.3417C13.9817 11.2256 13.9356 11.1144 13.8535 11.0323C13.7715 10.9503 13.6602 10.9042 13.5442 10.9042H4.14493L6.60805 8.44017C6.68775 8.35765 6.73185 8.24714 6.73085 8.13243C6.72985 8.01772 6.68384 7.90799 6.60272 7.82687C6.52161 7.74576 6.41188 7.69974 6.29717 7.69875C6.18246 7.69775 6.07194 7.74185 5.98943 7.82154L2.77905 11.0328Z" fill="white"/>
</svg>
