<svg width="22" height="22" viewBox="0 0 22 22" fill="none" xmlns="http://www.w3.org/2000/svg">
<path d="M19.2502 19.2502L15.2691 15.2691M15.2691 15.2691C15.9501 14.5881 16.4903 13.7797 16.8588 12.8899C17.2274 12.0002 17.417 11.0466 17.417 10.0835C17.417 9.12047 17.2274 8.16685 16.8588 7.2771C16.4903 6.38736 15.9501 5.57892 15.2691 4.89794C14.5881 4.21696 13.7797 3.67678 12.8899 3.30823C12.0002 2.93969 11.0466 2.75 10.0835 2.75C9.12047 2.75 8.16685 2.93969 7.2771 3.30823C6.38736 3.67678 5.57892 4.21696 4.89794 4.89794C3.52264 6.27324 2.75 8.13855 2.75 10.0835C2.75 12.0285 3.52264 13.8938 4.89794 15.2691C6.27324 16.6444 8.13855 17.417 10.0835 17.417C12.0285 17.417 13.8938 16.6444 15.2691 15.2691Z" stroke="black" stroke-linecap="round" stroke-linejoin="round"/>
</svg>
