<svg width="24" height="25" viewBox="0 0 24 25" fill="none" xmlns="http://www.w3.org/2000/svg">
<path d="M12 14.8276C13.1046 14.8276 14 13.9322 14 12.8276C14 11.7231 13.1046 10.8276 12 10.8276C10.8954 10.8276 10 11.7231 10 12.8276C10 13.9322 10.8954 14.8276 12 14.8276Z" stroke="white"/>
<path d="M5.3988 6.70744L5.6488 6.27344C5.55065 6.2167 5.43613 6.19499 5.32402 6.21189C5.21191 6.22879 5.10887 6.28328 5.0318 6.36644L5.3988 6.70744ZM3.3998 10.1714L2.9218 10.0234C2.88853 10.1317 2.89297 10.248 2.93439 10.3533C2.9758 10.4587 3.05175 10.5469 3.1498 10.6034L3.3998 10.1714ZM3.3978 15.4824L3.1478 15.0494C3.04954 15.1061 2.97345 15.1944 2.93202 15.3C2.89059 15.4056 2.88628 15.5221 2.9198 15.6304L3.3978 15.4824ZM5.3978 18.9464L5.0308 19.2864C5.10787 19.3696 5.21091 19.4241 5.32302 19.441C5.43513 19.4579 5.54965 19.4362 5.6478 19.3794L5.3978 18.9464ZM9.9978 21.6014H9.4978C9.49775 21.715 9.53633 21.8252 9.60721 21.9138C9.67809 22.0025 9.77705 22.0645 9.8878 22.0894L9.9978 21.6014ZM13.9988 21.6034L14.1098 22.0914C14.2204 22.0663 14.3191 22.0043 14.3898 21.9156C14.4605 21.8269 14.4989 21.7168 14.4988 21.6034H13.9988ZM18.5998 18.9474L18.3498 19.3804C18.448 19.4372 18.5625 19.4589 18.6746 19.442C18.7867 19.4251 18.8897 19.3706 18.9668 19.2874L18.5998 18.9474ZM20.5978 15.4814L21.0758 15.6294C21.1091 15.5212 21.1046 15.4049 21.0632 15.2996C21.0218 15.1942 20.9459 15.106 20.8478 15.0494L20.5978 15.4814ZM20.5998 10.1704L20.8498 10.6034C20.9481 10.5468 21.0242 10.4585 21.0656 10.3529C21.107 10.2473 21.1113 10.1308 21.0778 10.0224L20.5998 10.1704ZM18.5998 6.70544L18.9668 6.36544C18.8897 6.28228 18.7867 6.22779 18.6746 6.21089C18.5625 6.19399 18.448 6.2157 18.3498 6.27244L18.5998 6.70544ZM13.9998 4.05244H14.4998C14.4997 3.93922 14.4611 3.82938 14.3905 3.74091C14.3198 3.65244 14.2212 3.59058 14.1108 3.56544L13.9998 4.05244ZM9.9998 4.05044L9.8888 3.56244C9.77805 3.58742 9.67909 3.64935 9.60821 3.73804C9.53733 3.82673 9.49874 3.93691 9.4988 4.05044H9.9998ZM3.8778 10.3194C4.25299 9.10056 4.89796 7.98187 5.7648 7.04644L5.0318 6.36644C4.06266 7.41183 3.34147 8.66111 2.9218 10.0234L3.8778 10.3194ZM4.6378 17.0774C4.32 16.527 4.06475 15.9427 3.8768 15.3354L2.9208 15.6314C3.13147 16.3098 3.41724 16.9625 3.7728 17.5774L4.6378 17.0774ZM5.7658 18.6074C5.33432 18.141 4.95531 17.6278 4.6378 17.0774L3.7728 17.5774C4.12744 18.1926 4.54973 18.7661 5.0318 19.2874L5.7658 18.6074ZM13.8888 21.1174C12.6453 21.4005 11.354 21.3999 10.1108 21.1154L9.8888 22.0894C11.2781 22.4074 12.7211 22.4084 14.1108 22.0924L13.8888 21.1174ZM20.1218 15.3354C19.7466 16.5543 19.1016 17.673 18.2348 18.6084L18.9678 19.2884C19.9369 18.243 20.6581 16.9928 21.0778 15.6304L20.1218 15.3354ZM19.3618 8.57744C19.6858 9.14044 19.9388 9.72444 20.1238 10.3194L21.0788 10.0234C20.8682 9.34505 20.5824 8.69233 20.2268 8.07744L19.3618 8.57744ZM18.2338 7.04744C18.6656 7.51361 19.0446 8.02683 19.3618 8.57744L20.2268 8.07744C19.8722 7.46229 19.4499 6.88873 18.9678 6.36744L18.2338 7.04744ZM10.1108 4.53744C11.3543 4.25435 12.6456 4.25503 13.8888 4.53944L14.1108 3.56544C12.7215 3.24743 11.2785 3.24641 9.8888 3.56244L10.1108 4.53744ZM10.4998 5.89944V4.04944H9.4998V5.89944H10.4998ZM7.2498 7.19744L5.6488 6.27344L5.1488 7.13844L6.7488 8.06344L7.2498 7.19744ZM4.7498 14.1254L3.1478 15.0494L3.6488 15.9154L5.2488 14.9914L4.7498 14.1254ZM5.2498 10.6614L3.6498 9.73844L3.1498 10.6044L4.7498 11.5274L5.2498 10.6614ZM10.4998 21.6014V19.7544H9.4998V21.6014H10.4998ZM6.7498 17.5894L5.1488 18.5134L5.6488 19.3794L7.2488 18.4554L6.7498 17.5894ZM18.8508 18.5144L17.2498 17.5894L16.7498 18.4564L18.3498 19.3804L18.8508 18.5144ZM14.4998 21.6044V19.7544H13.4998V21.6044H14.4998ZM20.3508 9.73744L18.7498 10.6614L19.2498 11.5274L20.8498 10.6034L20.3508 9.73744ZM20.8488 15.0484L19.2498 14.1274L18.7498 14.9934L20.3498 15.9164L20.8488 15.0484ZM14.4998 5.89944V4.05244H13.4998V5.89944H14.4998ZM18.3508 6.27344L16.7498 7.19844L17.2498 8.06444L18.8508 7.13944L18.3508 6.27344ZM13.4998 5.89944C13.4998 7.82344 15.5828 9.02644 17.2498 8.06444L16.7498 7.19844C16.5217 7.33014 16.2629 7.39945 15.9996 7.39941C15.7362 7.39936 15.4774 7.32997 15.2494 7.1982C15.0213 7.06644 14.832 6.87694 14.7004 6.64878C14.5688 6.42062 14.4996 6.16283 14.4998 5.89944H13.4998ZM18.7498 10.6624C17.0828 11.6244 17.0828 14.0304 18.7498 14.9924L19.2498 14.1264C19.0218 13.9948 18.8325 13.8054 18.7008 13.5774C18.5692 13.3494 18.4999 13.0907 18.4999 12.8274C18.4999 12.5642 18.5692 12.3055 18.7008 12.0775C18.8325 11.8495 19.0218 11.6601 19.2498 11.5284L18.7498 10.6624ZM17.2498 17.5904C15.5828 16.6284 13.4998 17.8294 13.4998 19.7544H14.4998C14.4998 19.4911 14.5691 19.2335 14.7008 19.0055C14.8324 18.7774 15.0218 18.5881 15.2498 18.4564C15.4778 18.3248 15.7365 18.2555 15.9998 18.2555C16.2631 18.2555 16.5218 18.3248 16.7498 18.4564L17.2498 17.5904ZM10.4998 19.7544C10.4998 17.8304 8.4168 16.6284 6.7498 17.5904L7.2498 18.4564C7.4779 18.3247 7.73666 18.2554 8.00004 18.2555C8.26343 18.2555 8.52216 18.3249 8.75022 18.4567C8.97828 18.5884 9.16762 18.7779 9.2992 19.0061C9.43079 19.2343 9.49997 19.4931 9.4998 19.7564L10.4998 19.7544ZM5.2498 14.9924C6.9168 14.0304 6.9168 11.6244 5.2498 10.6624L4.7498 11.5284C5.7498 12.1054 5.7498 13.5474 4.7498 14.1254L5.2498 14.9924ZM9.4998 5.89944C9.49962 6.16266 9.43018 6.4212 9.29845 6.64908C9.16672 6.87696 8.97735 7.06617 8.74935 7.1977C8.52135 7.32923 8.26276 7.39845 7.99954 7.39841C7.73633 7.39836 7.47775 7.32905 7.2498 7.19744L6.7498 8.06444C8.4168 9.02644 10.4998 7.82444 10.4998 5.89944H9.4998Z" fill="white"/>
</svg>
