<svg width="163" height="33" viewBox="0 0 163 33" fill="none" xmlns="http://www.w3.org/2000/svg">
<g clip-path="url(#clip0_3_8223)">
<mask id="mask0_3_8223" style="mask-type:luminance" maskUnits="userSpaceOnUse" x="-417" y="-922" width="708" height="993">
<path d="M-416.566 -921.628V70.6621H290.639V-921.628H-416.566Z" fill="white"/>
</mask>
<g mask="url(#mask0_3_8223)">
<mask id="mask1_3_8223" style="mask-type:luminance" maskUnits="userSpaceOnUse" x="-417" y="-922" width="708" height="993">
<path d="M-416.566 70.6694H290.642V-921.625H-416.566V70.6694Z" fill="white"/>
</mask>
<g mask="url(#mask1_3_8223)">
<path d="M54.862 5.81631C53.4764 3.65061 50.6943 2.46906 48.0002 2.46906C42.99 2.46906 38.2234 6.21554 38.2234 12.7412C38.2234 19.2662 42.99 23.0127 48.0002 23.0127C50.6943 23.0127 53.3884 21.8341 54.862 19.5612V22.5922H58.8925V2.94315H54.862V5.81631ZM48.6313 19.4768C45.3479 19.4768 42.317 17.0352 42.317 12.7412C42.317 8.44728 45.3479 6.00565 48.6313 6.00565C51.8311 6.00565 54.862 8.57351 54.862 12.7412C54.862 16.909 51.8311 19.4768 48.6313 19.4768ZM75.8863 13.012C75.8863 17.0711 74.5646 19.49 71.4038 19.49C68.3596 19.49 66.7597 17.5386 66.7597 13.754V2.94315H62.5062V14.0255C62.5062 20.7773 66.2137 23.0009 70.4673 23.0009C73.3566 23.0009 75.3418 21.4268 76.0412 20.083V23.1206C76.0412 26.4678 75.1003 29.007 71.4698 29.007C68.7676 29.007 67.3843 28.1278 66.8419 25.7002H62.595C63.1424 29.956 66.2152 32.3359 71.0882 32.3359C77.611 32.3359 80.112 28.2812 80.112 22.8446V2.94315H75.8863V13.012ZM94.2701 22.5914L101.58 2.94315H97.3385L91.8865 18.6013L86.4344 2.94315H81.9438L89.2922 22.5914H94.2701ZM128.753 12.4249C128.753 8.67552 130.599 6.02546 134.126 6.02546C137.234 6.02546 138.788 7.92108 138.788 11.7138V22.5914H142.936V11.2793C142.936 4.95179 139.604 2.46906 135.311 2.46906C132.499 2.46906 129.668 4.00068 128.543 6.25223V2.94315H124.565V22.5914H128.753V12.4249ZM111.797 23.0127C116.08 23.0127 119.617 20.5527 120.766 16.5339H116.631C115.935 18.6974 114.162 19.5363 111.797 19.5363C108.447 19.5363 106.257 17.0102 106.029 13.8333H121.28C121.348 13.1471 121.359 12.6532 121.359 11.8716C121.359 6.59642 117.469 2.46906 111.838 2.46906C105.709 2.46906 101.921 6.84154 101.921 12.8205C101.921 18.3276 105.53 23.0127 111.797 23.0127ZM111.797 5.74879C115.123 5.74879 117.161 7.95851 117.223 10.8838H106.108C106.38 7.80733 108.501 5.74879 111.797 5.74879ZM162.071 16.771C162.071 9.85267 150.351 11.785 150.351 7.84403C150.351 6.479 151.461 5.7231 153.669 5.7231C156.007 5.7231 157.38 6.82539 157.423 8.51406H161.348C161.183 4.55843 158.04 2.46906 153.748 2.46906C149.3 2.46906 146.347 4.74483 146.347 8.26454C146.347 15.0757 157.896 13.015 157.896 17.1519C157.896 18.6982 156.678 19.7608 154.262 19.7608C151.87 19.7608 149.936 18.4538 149.639 16.3754H145.517C145.817 20.1256 149.074 23.0127 154.301 23.0127C159.848 23.0127 162.071 19.7968 162.071 16.771ZM20.5566 22.5922H30.6189V-0.323368H24.2069C24.2069 7.66202 22.9219 15.3986 20.5566 22.5922ZM17.2321 -0.323368L-0.138184 22.736C12.4876 22.736 22.8661 12.3024 22.8661 -0.323368H17.2321ZM96.5745 30.397H97.1763V27.1518H96.5745V30.397ZM94.3927 29.9207C93.5972 29.9207 93.0996 29.4364 93.0996 28.7649C93.0996 28.1176 93.592 27.6163 94.3831 27.6163C94.8807 27.6163 95.2587 27.7837 95.5559 28.0134L95.8781 27.5385C95.4656 27.2347 95.0077 27.0527 94.367 27.0527C93.2933 27.0527 92.4633 27.7536 92.4633 28.7649C92.4633 29.7952 93.2808 30.4836 94.367 30.4836C95.0077 30.4836 95.492 30.3104 95.903 30.0088L95.5816 29.5325C95.2399 29.7913 94.8213 29.928 94.3927 29.9207ZM98.6631 29.0129H100.493V28.4764H98.6631V27.6897H101.017V27.1518H98.0621V30.397H101.121V29.862H98.6631V29.0129ZM89.993 27.0527C88.959 27.0527 88.1018 27.7536 88.1018 28.77C88.1018 29.8004 88.959 30.4887 89.993 30.4887C91.0315 30.4887 91.8747 29.8004 91.8747 28.77C91.8747 27.7536 91.0315 27.0527 89.993 27.0527ZM89.993 29.9376C89.2188 29.9376 88.7242 29.4415 88.7242 28.77C88.7242 28.1176 89.2408 27.6068 89.993 27.6068C90.7629 27.6068 91.2517 28.1176 91.2517 28.77C91.2517 29.4364 90.7629 29.9376 89.993 29.9376ZM84.9784 27.9737C84.9784 27.7492 85.2683 27.6237 85.8488 27.6237C86.2473 27.6237 86.692 27.7411 87.1067 27.9187L87.3445 27.4292C86.8772 27.191 86.3593 27.0691 85.8349 27.074C84.8823 27.074 84.3546 27.4556 84.3546 28.0082C84.3546 29.2896 86.943 28.7649 86.943 29.4672C86.943 29.7387 86.6047 29.9207 85.9743 29.9207C85.4708 29.9207 85.0078 29.8004 84.5109 29.523L84.2776 30.0345C84.8448 30.3405 85.3373 30.4704 85.9699 30.4704C87.0333 30.4704 87.5661 30.0345 87.5661 29.4672C87.5661 28.1 84.9784 28.6137 84.9784 27.9737ZM113.174 29.7218C112.883 29.8514 112.567 29.9177 112.248 29.9163C111.452 29.9163 110.954 29.4364 110.954 28.7649C110.954 28.1176 111.447 27.6068 112.239 27.6237C112.738 27.6237 113.115 27.7785 113.412 28.0082L113.733 27.5334C113.321 27.2303 112.849 27.0527 112.222 27.0527C111.149 27.0527 110.319 27.7536 110.319 28.7649C110.319 29.7952 111.137 30.4836 112.222 30.4836C112.781 30.4836 113.347 30.3141 113.759 30.0374V28.7795H113.174V29.7218ZM145.149 29.7218C144.857 29.8514 144.541 29.9177 144.221 29.9163C143.426 29.9163 142.928 29.4364 142.928 28.7649C142.928 28.1176 143.422 27.6068 144.213 27.6237C144.711 27.6237 145.087 27.7785 145.386 28.0082L145.705 27.5334C145.294 27.2303 144.822 27.0527 144.196 27.0527C143.123 27.0527 142.292 27.7536 142.292 28.7649C142.292 29.7952 143.109 30.4836 144.196 30.4836C144.753 30.4836 145.321 30.3141 145.732 30.0374V28.7795H145.149V29.7218ZM137.759 29.0129H139.588V28.4764H137.759V27.6897H140.11V27.1518H137.157V30.397H140.215V29.862H137.759V29.0129ZM149.782 28.1858C149.782 27.576 149.354 27.1518 148.66 27.1518H146.576V30.397H147.177V29.2037H148.146L149.063 30.397H149.815L148.851 29.1854C149.361 29.112 149.782 28.7649 149.782 28.1858ZM147.177 28.6606V27.6897H148.66C148.999 27.6897 149.184 27.8798 149.184 28.1858C149.184 28.4669 148.973 28.6606 148.596 28.6606H147.177ZM160.97 27.1518H158.959V30.397H159.559V29.3065H160.97C161.68 29.3065 162.125 28.9219 162.125 28.2563C162.125 27.6163 161.68 27.1518 160.97 27.1518ZM161.004 28.77H159.559V27.6897H160.97C161.316 27.6897 161.51 27.9444 161.51 28.2643C161.51 28.5542 161.316 28.77 161.004 28.77ZM134.565 27.1518H133.964V30.397H136.733V29.862H134.565V27.1518ZM101.418 27.6853H102.742V30.397H103.344V27.6853H104.663V27.1518H101.418V27.6853ZM152.212 27.0527C151.178 27.0527 150.322 27.7536 150.322 28.77C150.322 29.8004 151.178 30.4887 152.212 30.4887C153.251 30.4887 154.095 29.8004 154.095 28.77C154.095 27.7536 153.251 27.0527 152.212 27.0527ZM152.212 29.9376C151.439 29.9376 150.944 29.4415 150.944 28.77C150.944 28.1176 151.46 27.6068 152.212 27.6068C152.984 27.6068 153.471 28.1176 153.471 28.77C153.471 29.4364 152.984 29.9376 152.212 29.9376ZM157.487 29.0129C157.487 29.5538 157.153 29.9354 156.453 29.9354C155.748 29.9354 155.419 29.5494 155.419 29.0129V27.1518H154.818V29.0775C154.818 29.8906 155.432 30.4924 156.453 30.4924C157.474 30.4924 158.087 29.9046 158.087 29.0775V27.1518H157.487V29.0129ZM121.04 28.0002C121.04 28.4808 121.045 28.9784 121.078 29.5919L121.066 29.5963L118.951 27.1518H118.336V30.397H118.925V29.5494C118.925 29.2771 118.925 28.4361 118.902 27.9561L118.911 27.9524L121.019 30.397H121.628V27.1518H121.04V28.0002ZM115.204 29.0129H117.034V28.4764H115.204V27.6897H117.557V27.1518H114.602V30.397H117.66V29.862H115.204V29.0129ZM131.299 27.1518L129.719 30.397H130.368L130.74 29.6081H132.493L132.864 30.397H133.514L131.93 27.1518H131.299ZM130.991 29.0819L131.619 27.7668L132.242 29.0819H130.991ZM105.785 29.0129H107.614V28.4764H105.785V27.6897H108.138V27.1518H105.183V30.397H108.243V29.862H105.785V29.0129ZM129.452 28.1858C129.452 27.576 129.022 27.1518 128.331 27.1518H126.244V30.397H126.846V29.2037H127.814L128.733 30.397H129.485L128.52 29.1854C129.031 29.112 129.452 28.7649 129.452 28.1858ZM126.846 28.6606V27.6897H128.331C128.667 27.6897 128.854 27.8798 128.854 28.1858C128.854 28.4669 128.642 28.6606 128.265 28.6606H126.846ZM123.121 29.0129H124.951V28.4764H123.121V27.6897H125.474V27.1518H122.521V30.397H125.578V29.862H123.121V29.0129Z" fill="white"/>
</g>
</g>
</g>
<defs>
<clipPath id="clip0_3_8223">
<rect width="162.263" height="32.8278" fill="white"/>
</clipPath>
</defs>
</svg>
