<svg xmlns="http://www.w3.org/2000/svg" width="34.919" height="34.924" viewBox="0 0 34.919 34.924"><defs><style>.a{fill:#fff;}.b{fill:#ffc01d;}</style></defs><path class="a" d="M314.924,109.655a2.108,2.108,0,0,1-1.174-.912,1.728,1.728,0,0,1,1.5-2.562.573.573,0,0,0,.521-.268,2.3,2.3,0,0,1,3.629-.046.648.648,0,0,0,.64.315,1.984,1.984,0,0,1,.456.059V82.9c-.124-.005-.256-.016-.385-.016h-5.691a2.1,2.1,0,0,1-.44-.032.565.565,0,0,1-.018-1.091,1.6,1.6,0,0,1,.4-.042q3.237,0,6.474-.005a.893.893,0,0,1,.842.389v26.123a1.989,1.989,0,0,1-1.432,1.433Zm2.679-1.162h0c.761,0,1.521.005,2.282,0a.516.516,0,0,0,.568-.393.814.814,0,0,0-.113-.556.529.529,0,0,0-.674-.145c-.535.2-.754.109-.975-.431a1.146,1.146,0,0,0-2.171-.021c-.244.575-.427.649-1.025.442a.572.572,0,1,0-.309,1.092,1.565,1.565,0,0,0,.3.018Z" transform="translate(-286.76 -74.731)"/><path class="a" d="M3,259.231a.852.852,0,0,1-.409-.831c.015-.807,0-1.614.009-2.421,0-.208-.038-.315-.266-.384A2.785,2.785,0,0,1,.29,252.947a15.827,15.827,0,0,1,.883-5.757,4.262,4.262,0,0,1,.769-1.308,1.593,1.593,0,0,1,2.657.188,6.5,6.5,0,0,1,1.012,2.507,18.113,18.113,0,0,1,.453,4.462A2.8,2.8,0,0,1,4.1,255.566a.416.416,0,0,0-.353.5c.018.8-.006,1.591.012,2.386a.765.765,0,0,1-.427.782Z" transform="translate(-0.266 -224.307)"/><path class="b" d="M17.281,264.88a15.827,15.827,0,0,0-.7-4.49,4.977,4.977,0,0,0-.608-1.2c-.232-.342-.558-.328-.831-.019a2.067,2.067,0,0,0-.342.542,14.229,14.229,0,0,0-.978,5.73,1.667,1.667,0,0,0,1.249,1.572,1.742,1.742,0,0,0,1.879-.637A2.071,2.071,0,0,0,17.281,264.88Z" transform="translate(-12.641 -236.817)"/><path class="a" d="M95.712,383.965a.868.868,0,0,1-.382-.846c.011-.227,0-.454,0-.683.006-.61.191-.8.794-.8h15.788a2.186,2.186,0,0,1,.374.013.533.533,0,0,1,.487.528.52.52,0,0,1-.416.582,1.7,1.7,0,0,1-.438.038h-15.4c-.032.435.053.9-.4,1.162Z" transform="translate(-87.188 -349.041)"/><path class="a" d="M124.187,1.176H110.228v29.29a2.875,2.875,0,0,1-.036.507.562.562,0,0,1-1.1-.02,2.485,2.485,0,0,1-.025-.407V.88c0-.72.161-.88.883-.88h14.52c.723,0,.885.16.885.878V30.543c0,.594-.181.874-.568.884s-.6-.286-.6-.893V1.176Z" transform="translate(-99.749 0)"/><path class="a" d="M144.59,287.391h-4.647V292.3a2.82,2.82,0,0,1-.006.307.6.6,0,0,1-.6.577.585.585,0,0,1-.553-.618c-.009-.988,0-1.976,0-2.965V287.37h-1.267a4.493,4.493,0,0,1-.577-.025.512.512,0,0,1-.472-.535.518.518,0,0,1,.432-.568,1.832,1.832,0,0,1,.4-.037h9.951c.553,0,.824.2.82.594s-.265.57-.8.572h-1.518v4.983a1.811,1.811,0,0,1-.019.373.537.537,0,0,1-.524.454.512.512,0,0,1-.556-.36,1.537,1.537,0,0,1-.06-.468c0-1.523,0-3.046,0-4.568Z" transform="translate(-124.809 -261.761)"/><path class="a" d="M1.176,82.9V93.625c0,.1,0,.2,0,.307a.583.583,0,0,1-.571.6.593.593,0,0,1-.588-.586c-.007-.079,0-.159,0-.238V82.592c0-.691.171-.861.872-.862H7.466c.442.021.683.235.683.6s-.248.569-.7.57c-1.943.005-3.886,0-5.828,0Z" transform="translate(-0.014 -74.749)"/><path class="a" d="M327.059,288.461c0-.546-.007-1.092,0-1.637.008-.479.208-.691.683-.7q1.057-.018,2.114,0a.614.614,0,0,1,.691.7q.011,1.623,0,3.24a.624.624,0,0,1-.71.717q-1.039.015-2.08,0c-.493-.008-.694-.22-.7-.72C327.05,289.529,327.059,288.995,327.059,288.461Zm1.186-1.155v2.283h1.117v-2.283Z" transform="translate(-299.122 -261.678)"/><path class="a" d="M221.49,206.757c0,.545.006,1.091,0,1.636-.007.459-.211.664-.671.669q-1.074.012-2.148,0c-.448-.005-.662-.223-.665-.683q-.01-1.636,0-3.274a.609.609,0,0,1,.7-.691q1.057-.009,2.114,0a.6.6,0,0,1,.675.67C221.5,205.642,221.49,206.2,221.49,206.757Z" transform="translate(-199.382 -186.951)"/><path class="b" d="M231.89,218.27v2.283h1.12V218.27Z" transform="translate(-212.086 -199.628)"/><path class="a" d="M149.949,206.749c0-.545-.006-1.091,0-1.636.006-.476.215-.683.691-.688q1.057-.009,2.114,0a.6.6,0,0,1,.679.673q.013,1.654,0,3.308c0,.449-.225.662-.683.666q-1.074.012-2.148,0a.579.579,0,0,1-.654-.651C149.94,207.864,149.949,207.307,149.949,206.749Z" transform="translate(-137.139 -186.961)"/><path class="b" d="M164.955,220.561V218.27H163.84v2.291Z" transform="translate(-149.848 -199.628)"/><path class="a" d="M44.309,124.991c0,.545.007,1.091,0,1.636-.008.492-.22.7-.713.706q-1.025.009-2.046,0c-.506,0-.728-.224-.731-.732q-.008-1.6,0-3.205c0-.495.215-.71.7-.716q1.057-.011,2.114,0c.46.007.661.21.67.672C44.316,123.9,44.309,124.445,44.309,124.991ZM42,123.865v2.28h1.11v-2.28Z" transform="translate(-37.33 -112.197)"/><path class="a" d="M149.974,125c0-.535,0-1.068,0-1.6,0-.512.195-.712.692-.718q1.057-.013,2.114,0c.471.007.678.224.683.7q.008,1.623,0,3.24c0,.487-.224.7-.716.71q-1.039.01-2.08,0c-.473-.006-.683-.22-.689-.694C149.966,126.094,149.974,125.549,149.974,125Z" transform="translate(-137.164 -112.197)"/><path class="b" d="M165.01,136.63h-1.12v2.277h1.12Z" transform="translate(-149.893 -124.96)"/><path class="a" d="M221.458,125c0,.546.005,1.092,0,1.636-.005.473-.216.688-.689.694q-1.057.013-2.114,0a.609.609,0,0,1-.683-.675q-.013-1.654,0-3.308c0-.45.22-.663.679-.669q1.074-.014,2.148,0c.456.007.652.217.657.683C221.463,123.907,221.458,124.452,221.458,125Z" transform="translate(-199.35 -112.193)"/><path class="b" d="M233.01,136.62h-1.12v2.28h1.12Z" transform="translate(-212.086 -124.951)"/><path class="a" d="M330.58,125.032c0,.523,0,1.045,0,1.568s-.224.74-.755.743q-1.006.006-2.011,0c-.512,0-.721-.214-.723-.73q-.009-1.6,0-3.205c0-.521.2-.713.729-.718q1.005-.009,2.011,0c.55,0,.747.212.751.775C330.58,123.986,330.58,124.506,330.58,125.032Zm-2.306,1.122h1.11v-2.281h-1.11Z" transform="translate(-299.15 -112.206)"/><path class="a" d="M327.078,206.759c0-.546-.007-1.092,0-1.636.008-.495.218-.7.717-.7q1.025-.007,2.05,0c.506,0,.725.219.728.732q.008,1.6,0,3.205c0,.494-.219.707-.708.711q-1.039.009-2.08,0c-.5,0-.694-.2-.7-.71C327.068,207.829,327.078,207.294,327.078,206.759Zm1.191-1.158v2.29h1.117V205.6Z" transform="translate(-299.14 -186.961)"/><path class="a" d="M149.935,43.11c0-.546-.005-1.092,0-1.637.005-.471.215-.689.683-.7q1.057-.014,2.114,0a.614.614,0,0,1,.683.707q.009,1.623,0,3.24c0,.489-.214.7-.713.707q-1.039.013-2.079,0c-.5-.007-.69-.21-.694-.719C149.928,44.179,149.935,43.644,149.935,43.11Z" transform="translate(-137.125 -37.288)"/><path class="b" d="M163.78,57.052h1.129V54.77H163.78Z" transform="translate(-149.793 -50.092)"/><path class="a" d="M221.462,43.121c0,.534,0,1.068,0,1.6,0,.512-.194.715-.692.722q-1.056.015-2.113,0c-.472-.008-.679-.225-.683-.7q-.009-1.623,0-3.24c0-.484.225-.705.715-.711.693-.008,1.386-.009,2.08,0a.609.609,0,0,1,.69.694C221.467,42.03,221.462,42.575,221.462,43.121Z" transform="translate(-199.354 -37.301)"/><path class="b" d="M232.979,54.69H231.85v2.285h1.129Z" transform="translate(-212.049 -50.019)"/><path class="a" d="M43.165,205.553H42c0,.191.01.38,0,.568a.564.564,0,0,1-.524.569.55.55,0,0,1-.61-.512,8.357,8.357,0,0,1,0-1.291.542.542,0,0,1,.583-.512c.761-.009,1.523-.012,2.284,0a.561.561,0,0,1,.6.606q.018,1.708,0,3.409a.556.556,0,0,1-.574.623c-.341,0-.575-.243-.581-.659-.013-.807,0-1.613,0-2.421Z" transform="translate(-37.351 -186.911)"/><path class="a" d="M198.341,327.351a.545.545,0,0,1,.559.554.568.568,0,1,1-1.134-.018.545.545,0,0,1,.576-.536Z" transform="translate(-180.875 -299.391)"/></svg>