<svg width="36" height="36" viewBox="0 0 36 36" fill="none" xmlns="http://www.w3.org/2000/svg">
<g clip-path="url(#clip0_8_520)">
<path d="M30.0008 18.5213V5.40038C29.9987 3.74482 28.6572 2.40325 27.0017 2.40128H25.802V1.80149C25.802 0.807718 24.9963 0.00204468 24.0026 0.00204468C23.0088 0.00204468 22.2031 0.807718 22.2031 1.80149V2.40128H19.8039V1.80149C19.8039 0.807718 18.9983 0.00204468 18.0044 0.00204468C17.0107 0.00204468 16.205 0.807718 16.205 1.80149V2.40128H13.8058V1.80149C13.8058 0.807718 13.0001 0.00204468 12.0063 0.00204468C11.0126 0.00204468 10.2069 0.807718 10.2069 1.80149V2.40128H7.80765V1.80149C7.80765 0.807718 7.00197 0.00204468 6.0082 0.00204468C5.01443 0.00204468 4.20876 0.807718 4.20876 1.80149V2.40128H3.00911C1.35355 2.40325 0.0119779 3.74482 0.0100098 5.40038V29.3929C0.0119779 31.0484 1.35355 32.39 3.00911 32.392H19.7319V32.272C22.0014 35.4046 26.0204 36.734 29.7101 35.5725C33.3999 34.411 35.9327 31.0193 35.9987 27.1516C36.0646 23.2839 33.6488 19.8078 30.0008 18.5213ZM23.4028 1.80149C23.4028 1.47021 23.6713 1.2017 24.0026 1.2017C24.3339 1.2017 24.6024 1.47028 24.6024 1.80149V4.20072C24.6024 4.532 24.3338 4.80052 24.0026 4.80052C23.6714 4.80052 23.4028 4.53193 23.4028 4.20072V1.80149ZM17.4047 1.80149C17.4047 1.47021 17.6732 1.2017 18.0044 1.2017C18.3357 1.2017 18.6042 1.47028 18.6042 1.80149V4.20072C18.6042 4.532 18.3357 4.80052 18.0044 4.80052C17.6732 4.80052 17.4047 4.53193 17.4047 4.20072V1.80149ZM11.4065 1.80149C11.4065 1.47021 11.675 1.2017 12.0063 1.2017C12.3375 1.2017 12.606 1.47028 12.606 1.80149V4.20072C12.606 4.532 12.3375 4.80052 12.0063 4.80052C11.675 4.80052 11.4065 4.53193 11.4065 4.20072V1.80149ZM5.40834 1.80149C5.40834 1.47021 5.67692 1.2017 6.00813 1.2017C6.33934 1.2017 6.60792 1.47028 6.60792 1.80149V4.20072C6.60792 4.532 6.33934 4.80052 6.00813 4.80052C5.67692 4.80052 5.40834 4.532 5.40834 4.20072V1.80149ZM3.00911 3.60093H4.20876V4.20072C4.20876 5.1945 5.01443 6.00017 6.0082 6.00017C7.00197 6.00017 7.80765 5.1945 7.80765 4.20072V3.60093H10.2069V4.20072C10.2069 5.1945 11.0126 6.00017 12.0063 6.00017C13.0002 6.00017 13.8058 5.1945 13.8058 4.20072V3.60093H16.205V4.20072C16.205 5.1945 17.0107 6.00017 18.0044 6.00017C18.9983 6.00017 19.8039 5.1945 19.8039 4.20072V3.60093H22.2031V4.20072C22.2031 5.1945 23.0088 6.00017 24.0026 6.00017C24.9963 6.00017 25.802 5.1945 25.802 4.20072V3.60093H27.0017C27.9954 3.60093 28.8011 4.40661 28.8011 5.40038V7.19982H1.20966V5.40038C1.20966 4.40654 2.01527 3.60093 3.00911 3.60093ZM3.00911 31.1924C2.01534 31.1924 1.20966 30.3867 1.20966 29.3929V8.3994H28.8011V18.1764C25.7187 17.5473 22.5321 18.5793 20.4037 20.896V20.3957C20.4037 19.7332 19.8666 19.1961 19.204 19.1961H16.8048C16.1422 19.1961 15.6051 19.7332 15.6051 20.3957V22.795C15.6051 23.4575 16.1422 23.9946 16.8048 23.9946H18.5292C18.3867 24.3859 18.2718 24.7868 18.1855 25.1943H16.8047C16.1422 25.1943 15.6051 25.7314 15.6051 26.3939V28.7931C15.6051 29.4557 16.1422 29.9928 16.8047 29.9928H18.5292C18.6734 30.4048 18.8476 30.8059 19.0504 31.1925L3.00911 31.1924ZM18.1844 28.7931H16.8048V26.3939H18.035C18.0218 26.593 18.0044 26.791 18.0044 26.9937C18.0041 27.598 18.0643 28.2009 18.1844 28.7931ZM19.2041 22.5238C19.1525 22.6144 19.0992 22.7038 19.0505 22.795H16.8048V20.3957H19.204L19.2041 22.5238ZM27.0017 34.7913C22.6952 34.7913 19.2041 31.3001 19.2041 26.9937C19.2041 22.6873 22.6952 19.1961 27.0017 19.1961C31.3082 19.1961 34.7992 22.6872 34.7992 26.9936C34.7943 31.2981 31.3061 34.7864 27.0017 34.7913Z" fill="white"/>
<path d="M27 19C22.5817 19 19 22.5817 19 27C19 31.4183 22.5817 35 27 35C31.4183 35 35 31.4183 35 27C34.9948 22.5839 31.4161 19.0052 27 19Z" fill="#FFC01D"/>
<path d="M27.5999 26.8576V22.8888C27.5999 22.3979 27.2418 22 26.7999 22C26.3581 22 26 22.3979 26 22.8888V27.3332C26 27.6304 26.1335 27.9079 26.356 28.0728L28.7559 29.8506C28.9936 30.0268 29.298 30.0487 29.5543 29.9081C29.8106 29.7673 29.9799 29.4855 29.9983 29.1685C30.0168 28.8515 29.8817 28.5478 29.6439 28.3715L27.5999 26.8576Z" fill="white"/>
<path d="M7.20779 25.1943H4.80855C4.14599 25.1943 3.6089 25.7314 3.6089 26.394V28.7932C3.6089 29.4558 4.14599 29.9928 4.80855 29.9928H7.20779C7.87035 29.9928 8.40744 29.4558 8.40744 28.7932V26.394C8.40744 25.7314 7.87035 25.1943 7.20779 25.1943ZM7.20779 28.7932H4.80855V26.394H7.20779V28.7932Z" fill="white"/>
<path d="M13.2059 25.1943H10.8067C10.1441 25.1943 9.60703 25.7314 9.60703 26.394V28.7932C9.60703 29.4558 10.1441 29.9928 10.8067 29.9928H13.2059C13.8685 29.9928 14.4056 29.4558 14.4056 28.7932V26.394C14.4056 25.7314 13.8685 25.1943 13.2059 25.1943ZM13.2059 28.7932H10.8067V26.394H13.2059V28.7932Z" fill="white"/>
<path d="M7.20779 19.1961H4.80855C4.14599 19.1961 3.6089 19.7332 3.6089 20.3958V22.795C3.6089 23.4576 4.14599 23.9947 4.80855 23.9947H7.20779C7.87035 23.9947 8.40744 23.4576 8.40744 22.795V20.3958C8.40744 19.7333 7.87035 19.1961 7.20779 19.1961ZM7.20779 22.795H4.80855V20.3958H7.20779V22.795Z" fill="white"/>
<path d="M13.2059 19.1961H10.8067C10.1441 19.1961 9.60703 19.7332 9.60703 20.3958V22.795C9.60703 23.4576 10.1441 23.9947 10.8067 23.9947H13.2059C13.8685 23.9947 14.4056 23.4576 14.4056 22.795V20.3958C14.4056 19.7333 13.8685 19.1961 13.2059 19.1961ZM13.2059 22.795H10.8067V20.3958H13.2059V22.795Z" fill="white"/>
<path d="M10.9824 17.2209C11.2177 17.4483 11.5919 17.445 11.8232 17.2136C12.0546 16.9822 12.0578 16.6082 11.8305 16.3728L9.25549 13.7978L11.8305 11.2228C12.0578 10.9874 12.0546 10.6133 11.8232 10.3819C11.5918 10.1505 11.2177 10.1473 10.9824 10.3746L7.9833 13.3737C7.74916 13.6079 7.74916 13.9876 7.9833 14.2218L10.9824 17.2209Z" fill="white"/>
<path d="M18.1802 17.2209C18.4144 17.4551 18.7941 17.4551 19.0283 17.2209L22.0274 14.2218C22.2615 13.9876 22.2615 13.6079 22.0274 13.3737L19.0283 10.3746C18.793 10.1473 18.4188 10.1505 18.1875 10.3819C17.9561 10.6133 17.9529 10.9874 18.1802 11.2228L20.7552 13.7978L18.1802 16.3728C17.946 16.607 17.946 16.9867 18.1802 17.2209Z" fill="white"/>
<path d="M13.5826 17.3542C13.7303 17.4132 13.8956 17.4112 14.0418 17.3484C14.188 17.2856 14.3034 17.1673 14.3623 17.0195L16.7616 11.0214C16.8411 10.8223 16.8083 10.5959 16.6757 10.4276C16.543 10.2592 16.3306 10.1744 16.1185 10.205C15.9063 10.2357 15.7267 10.3772 15.6472 10.5763L13.2479 16.5744C13.1889 16.7222 13.1909 16.8874 13.2537 17.0336C13.3165 17.1798 13.4348 17.2952 13.5826 17.3542Z" fill="white"/>
</g>
<defs>
<clipPath id="clip0_8_520">
<rect width="35.99" height="35.99" fill="white" transform="translate(0.0100098)"/>
</clipPath>
</defs>
</svg>
