<svg xmlns="http://www.w3.org/2000/svg" width="35.985" height="35.995" viewBox="0 0 35.985 35.995"><defs><style>.a{fill:#fff;}.b{fill:#ffc01d;}</style></defs><path class="a" d="M35.965,4.4a6.59,6.59,0,0,1-.425.511q-5,5.012-10.012,10.016a2,2,0,0,1-.344.3.584.584,0,0,1-.8-.811,2.156,2.156,0,0,1,.3-.341q4.753-4.761,9.518-9.516a3.2,3.2,0,0,1,.313-.251l-1.03-1.056a2.385,2.385,0,0,1-.238.354Q28.2,8.659,23.137,13.716a2.163,2.163,0,0,1-.34.3.583.583,0,0,1-.813-.8,2.156,2.156,0,0,1,.3-.341Q27.339,7.815,32.4,2.762a3.3,3.3,0,0,1,.39-.282c-.451-.44-.818-.816-1.208-1.164a.652.652,0,0,0-.393-.077q-5.429-.006-10.857,0-7.73,0-15.461-.007a.924.924,0,0,0-.76.321c-.273.3-.583.569-.959.929a3.081,3.081,0,0,1,.4.278q5.062,5.05,10.114,10.11a2.213,2.213,0,0,1,.3.34.582.582,0,0,1-.8.815,2.077,2.077,0,0,1-.342-.3Q7.763,8.671,2.71,3.612A2.956,2.956,0,0,1,2.463,3.3L1.428,4.365a1.175,1.175,0,0,1,.3.176Q6.5,9.31,11.271,14.084c.427.426.491.768.2,1.056s-.635.208-1.056-.215L.376,4.884c-.528-.528-.528-.763,0-1.285C1.44,2.53,2.514,1.466,3.574.39A1.13,1.13,0,0,1,4.446.038q13.528.01,27.057,0a1.13,1.13,0,0,1,.869.353C33.44,1.476,34.522,2.547,35.6,3.626c.13.131.244.279.365.419Z" transform="translate(0.02 -0.037)"/><path class="a" d="M91.894,185.411c-.734-.136-1.481-.221-2.2-.42a10.542,10.542,0,0,1-6.18-4.564,10.783,10.783,0,0,1,10.375-16.514,10.781,10.781,0,0,1-.39,21.447,1.254,1.254,0,0,0-.2.048Zm.7-1.2A9.594,9.594,0,1,0,83,174.626a9.63,9.63,0,0,0,9.594,9.586Z" transform="translate(-74.604 -149.416)"/><path class="a" d="M76.6,35.028c-.148.2-.237.42-.4.5a.961.961,0,0,1-.587,0c-.121-.03-.219-.167-.318-.264q-4.882-4.887-9.763-9.768a2.634,2.634,0,0,1-.192-.207.6.6,0,0,1,.01-.826.582.582,0,0,1,.8-.033,2.123,2.123,0,0,1,.232.213q4.894,4.895,9.786,9.793A5.619,5.619,0,0,1,76.6,35.028Z" transform="translate(-59.448 -22.153)"/><path class="a" d="M215.771,35.658c-.557,0-.855-.457-.658-.843a1.466,1.466,0,0,1,.283-.352q4.891-4.894,9.788-9.787a1.383,1.383,0,0,1,.323-.264.585.585,0,0,1,.767.831,1.834,1.834,0,0,1-.276.316q-4.868,4.869-9.741,9.735A3.684,3.684,0,0,1,215.771,35.658Z" transform="translate(-196.123 -22.195)"/><path class="a" d="M136.145,55.735h-5.688a3.11,3.11,0,0,1-.385-.015.547.547,0,0,1-.512-.534.535.535,0,0,1,.424-.6,1.65,1.65,0,0,1,.416-.046h11.657c.42.026.685.264.679.61s-.264.584-.693.585C140.078,55.738,138.111,55.735,136.145,55.735Z" transform="translate(-118.15 -49.74)"/><path class="a" d="M148.4,218.119a.953.953,0,0,1,.831.609q.528,1.241,1.017,2.5a.55.55,0,0,0,.561.44c.642.019,1.281.116,1.922.164a.976.976,0,0,1,.951.646,1.022,1.022,0,0,1-.377,1.189q-.776.631-1.584,1.226a.373.373,0,0,0-.159.467c.213.8.4,1.611.592,2.418a.867.867,0,0,1-.32.968.89.89,0,0,1-1.026.031c-.5-.3-.968-.654-1.453-.98-.346-.234-.7-.638-1.046-.641-.334,0-.672.415-1.007.65-.373.264-.739.535-1.117.792a1.685,1.685,0,0,1-.495.255c-.8.209-1.334-.3-1.132-1.108.192-.77.415-1.534.664-2.288a.46.46,0,0,0-.221-.625c-.523-.352-1.023-.741-1.53-1.118a1.083,1.083,0,0,1-.5-1.178c.119-.43.44-.65,1.017-.7.723-.062,1.444-.139,2.169-.187a.335.335,0,0,0,.345-.264c.3-.838.595-1.672.906-2.506A1,1,0,0,1,148.4,218.119Z" transform="translate(-130.357 -198.924)"/><path class="b" d="M161.817,239.941l-.037.071,1.57,1.154c.471.347.518.486.359,1.041-.19.659-.381,1.32-.6,2.071.664-.474,1.25-.893,1.837-1.311.507-.361.646-.36,1.155,0l1.913,1.366c-.2-.807-.376-1.531-.56-2.254a.715.715,0,0,1,.283-.832c.478-.357.942-.733,1.415-1.095a1.211,1.211,0,0,1,.241-.113l-.088-.1c-.606-.053-1.21-.127-1.818-.15a.955.955,0,0,1-.991-.7c-.269-.775-.6-1.528-.944-2.366-.305.843-.606,1.6-.853,2.376a.889.889,0,0,1-.924.688C163.12,239.817,162.469,239.888,161.817,239.941Z" transform="translate(-147.539 -215.888)"/></svg>