<svg xmlns="http://www.w3.org/2000/svg" width="41.78" height="39" viewBox="0 0 41.78 39"><defs><style>.a{fill:#fff;}.b{fill:#ffc01d;}</style></defs><path class="a" d="M344.483,125.828a3.048,3.048,0,0,1-1.567,2.071,2.694,2.694,0,0,1-3.234-.62.484.484,0,0,0-.682-.156,6.412,6.412,0,0,1-.953.353.678.678,0,0,1-.5-1.256,8,8,0,0,1,1.057-.424.411.411,0,0,0,.327-.461,2.76,2.76,0,0,1,2.224-2.658,2.793,2.793,0,0,1,3.079,1.609c.1.234.166.486.247.73Z" transform="translate(-302.702 -110.085)"/><path class="b" d="M369.377,136.34A1.371,1.371,0,0,0,368,137.7a1.4,1.4,0,0,0,1.384,1.412,1.413,1.413,0,0,0,1.39-1.374,1.389,1.389,0,0,0-1.4-1.4Z" transform="translate(-330.383 -122.402)"/><path class="a" d="M94.231,106.82a12.535,12.535,0,1,1,12.535-12.539A12.575,12.575,0,0,1,94.231,106.82ZM93.515,91.5c-1.475,0-2.9,0-4.326.012-.089,0-.232.158-.255.264a12.08,12.08,0,0,0-.035,4.9c.06.307.147.4.457.4,1.168-.018,2.338-.007,3.507-.007h.651Zm1.438,5.561c1.461,0,2.9,0,4.335-.01.082,0,.216-.146.235-.242a13.941,13.941,0,0,0,.221-1.408,11.646,11.646,0,0,0-.272-3.866H94.95ZM83.485,91.52a.324.324,0,0,0-.045.076,10.787,10.787,0,0,0-.051,5.238c.055.243.214.231.4.23h3.755a14.925,14.925,0,0,1-.006-5.543ZM105,97.04a10.733,10.733,0,0,0,0-5.525h-4.082a14.964,14.964,0,0,1,0,5.525Zm-13.059,8.1a.494.494,0,0,0-.061-.1,15.894,15.894,0,0,1-3.908-6.306.357.357,0,0,0-.416-.276c-1.113.008-2.226,0-3.341,0a2.569,2.569,0,0,0-.267.028A10.9,10.9,0,0,0,91.944,105.141Zm12.549-6.683c-1.194,0-2.351.015-3.5-.01a.5.5,0,0,0-.566.42,15.662,15.662,0,0,1-3.68,5.987c-.076.079-.143.166-.249.289a10.871,10.871,0,0,0,8-6.686ZM83.962,90.11c1.191,0,2.371-.01,3.549.008a.429.429,0,0,0,.494-.346,15.682,15.682,0,0,1,3.768-6.126,2.19,2.19,0,0,0,.163-.225A10.873,10.873,0,0,0,83.962,90.11ZM96.5,83.446c.118.128.214.236.314.341a16.41,16.41,0,0,1,3.354,5.155c.157.384.21.92.495,1.111s.818.055,1.234.056h2.6C103.729,87.193,99.24,83.453,96.5,83.446ZM89.382,98.482a14.862,14.862,0,0,0,4.121,6.123V98.482Zm5.574,0v6.133a14.847,14.847,0,0,0,4.11-6.133Zm-1.462-8.394V83.961a14.943,14.943,0,0,0-4.11,6.125Zm5.574,0a14.887,14.887,0,0,0-4.121-6.133v6.133Z" transform="translate(-73.342 -73.393)"/><path class="a" d="M73.135,315.34a2.791,2.791,0,1,1-1.469-.928.489.489,0,0,0,.613-.2c.241-.307.511-.6.772-.893.44-.5.828-.6,1.177-.3s.3.723-.122,1.208C73.784,314.587,73.466,314.957,73.135,315.34Z" transform="translate(-61.23 -280.866)"/><path class="b" d="M84.536,342.17A1.384,1.384,0,1,0,83.1,343.5,1.384,1.384,0,0,0,84.536,342.17Z" transform="translate(-73.412 -305.897)"/><path class="a" d="M279.952,317.755a10.692,10.692,0,0,1,.494-1.476.464.464,0,0,0-.068-.628c-.283-.312-.554-.635-.818-.966a.7.7,0,0,1,.051-1.047.716.716,0,0,1,1.013.159c.3.342.6.737.931,1.078a.529.529,0,0,0,.435.127,2.783,2.783,0,1,1-1.937,2.786Z" transform="translate(-250.796 -281.446)"/><path class="b" d="M301.2,340.729a1.387,1.387,0,1,0,1.281.867A1.377,1.377,0,0,0,301.2,340.729Z" transform="translate(-269.162 -305.898)"/><path class="a" d="M5.576,125.642c.419.166.811.317,1.2.474.511.21.716.562.551.969s-.55.511-1.068.321a.29.29,0,0,1-.037-.016,1.368,1.368,0,0,0-1.818.2,2.534,2.534,0,0,1-3.423-.109,2.775,2.775,0,1,1,4.591-2.151C5.579,125.419,5.576,125.514,5.576,125.642Z" transform="translate(-0.025 -110.066)"/><path class="b" d="M16.344,137.732a1.371,1.371,0,0,0-1.348-1.4A1.39,1.39,0,0,0,13.57,137.7a1.414,1.414,0,0,0,1.4,1.408A1.4,1.4,0,0,0,16.344,137.732Z" transform="translate(-12.185 -122.398)"/><path class="a" d="M177.159,2.776a2.777,2.777,0,0,1,5.475-.651,2.732,2.732,0,0,1-1.656,3.211.46.46,0,0,0-.347.536,4.833,4.833,0,0,1-.032.852.637.637,0,0,1-.68.569.623.623,0,0,1-.644-.562,6.183,6.183,0,0,1-.033-.933.391.391,0,0,0-.307-.442,2.732,2.732,0,0,1-1.778-2.579Z" transform="translate(-159.052 0.003)"/><path class="b" d="M193.544,15.027a1.387,1.387,0,1,0-1.387,1.387A1.387,1.387,0,0,0,193.544,15.027Z" transform="translate(-171.271 -12.245)"/></svg>